<?xml version="1.0" encoding="us-ascii" standalone="no"?><svg xmlns="http://www.w3.org/2000/svg" xmlns:xlink="http://www.w3.org/1999/xlink" contentStyleType="text/css" height="524px" preserveAspectRatio="none" style="width:202px;height:524px;background:#FFFFFF;" version="1.1" viewBox="0 0 202 524" width="202px" zoomAndPan="magnify"><defs/><g><ellipse cx="82" cy="20" fill="#222222" rx="10" ry="10" style="stroke:#222222;stroke-width:1.0;"/><rect fill="#F1F1F1" height="33.9688" rx="12.5" ry="12.5" style="stroke:#181818;stroke-width:0.5;" width="142" x="11" y="94"/><text fill="#000000" font-family="sans-serif" font-size="12" lengthAdjust="spacing" textLength="122" x="21" y="115.1387">Check row for parts</text><rect fill="#FF0000" height="33.9688" rx="12.5" ry="12.5" style="stroke:#181818;stroke-width:0.5;" width="132" x="16" y="196.3711"/><text fill="#000000" font-family="sans-serif" font-size="12" lengthAdjust="spacing" textLength="112" x="26" y="217.5098">Error missing part</text><polygon fill="#F1F1F1" points="37.5,147.9688,126.5,147.9688,138.5,159.9688,126.5,171.9688,37.5,171.9688,25.5,159.9688,37.5,147.9688" style="stroke:#181818;stroke-width:0.5;"/><text fill="#000000" font-family="sans-serif" font-size="11" lengthAdjust="spacing" textLength="14" x="86" y="182.1792">no</text><text fill="#000000" font-family="sans-serif" font-size="11" lengthAdjust="spacing" textLength="89" x="37.5" y="163.7769">Parts detected?</text><rect fill="#F1F1F1" height="33.9688" rx="12.5" ry="12.5" style="stroke:#181818;stroke-width:0.5;" width="125" x="19.5" y="293.7388"/><text fill="#000000" font-family="sans-serif" font-size="12" lengthAdjust="spacing" textLength="105" x="29.5" y="314.8774">All parts availible</text><polygon fill="#F1F1F1" points="82,50,94,62,82,74,70,62,82,50" style="stroke:#181818;stroke-width:0.5;"/><polygon fill="#F1F1F1" points="38,347.7075,126,347.7075,138,359.7075,126,371.7075,38,371.7075,26,359.7075,38,347.7075" style="stroke:#181818;stroke-width:0.5;"/><text fill="#000000" font-family="sans-serif" font-size="11" lengthAdjust="spacing" textLength="20" x="86" y="381.918">yes</text><text fill="#000000" font-family="sans-serif" font-size="11" lengthAdjust="spacing" textLength="88" x="38" y="363.5156">row 5 checked?</text><text fill="#000000" font-family="sans-serif" font-size="11" lengthAdjust="spacing" textLength="14" x="138" y="357.1133">no</text><rect fill="#F1F1F1" height="33.9688" rx="12.5" ry="12.5" style="stroke:#181818;stroke-width:0.5;" width="126" x="19" y="403.418"/><text fill="#000000" font-family="sans-serif" font-size="12" lengthAdjust="spacing" textLength="106" x="29" y="424.5566">Move to next row</text><ellipse cx="82" cy="502.5903" fill="none" rx="11" ry="11" style="stroke:#222222;stroke-width:1.0;"/><ellipse cx="82" cy="502.5903" fill="#222222" rx="6" ry="6" style="stroke:#222222;stroke-width:1.0;"/><line style="stroke:#181818;stroke-width:1.0;" x1="82" x2="82" y1="171.9688" y2="196.3711"/><polygon fill="#181818" points="78,186.3711,82,196.3711,86,186.3711,82,190.3711" style="stroke:#181818;stroke-width:1.0;"/><line style="stroke:#181818;stroke-width:1.0;" x1="138.5" x2="158" y1="159.9688" y2="159.9688"/><polygon fill="#181818" points="154,200.3555,158,210.3555,162,200.3555,158,204.3555" style="stroke:#181818;stroke-width:1.0;"/><line style="stroke:#181818;stroke-width:1.0;" x1="158" x2="158" y1="159.9688" y2="252.3398"/><line style="stroke:#181818;stroke-width:1.0;" x1="158" x2="82" y1="252.3398" y2="252.3398"/><line style="stroke:#181818;stroke-width:1.0;" x1="82" x2="82" y1="127.9688" y2="147.9688"/><polygon fill="#181818" points="78,137.9688,82,147.9688,86,137.9688,82,141.9688" style="stroke:#181818;stroke-width:1.0;"/><line style="stroke:#181818;stroke-width:1.0;" x1="82" x2="82" y1="252.3398" y2="293.7388"/><polygon fill="#181818" points="78,283.7388,82,293.7388,86,283.7388,82,287.7388" style="stroke:#181818;stroke-width:1.0;"/><text fill="#000000" font-family="sans-serif" font-size="11" lengthAdjust="spacing" textLength="20" x="86" y="273.6445">yes</text><line style="stroke:#181818;stroke-width:1.0;" x1="82" x2="82" y1="74" y2="94"/><polygon fill="#181818" points="78,84,82,94,86,84,82,88" style="stroke:#181818;stroke-width:1.0;"/><line style="stroke:#181818;stroke-width:1.0;" x1="138" x2="176" y1="359.7075" y2="359.7075"/><polygon fill="#181818" points="172,220.7578,176,210.7578,180,220.7578,176,216.7578" style="stroke:#181818;stroke-width:1.0;"/><line style="stroke:#181818;stroke-width:1.0;" x1="176" x2="176" y1="62" y2="359.7075"/><line style="stroke:#181818;stroke-width:1.0;" x1="176" x2="94" y1="62" y2="62"/><polygon fill="#181818" points="104,58,94,62,104,66,100,62" style="stroke:#181818;stroke-width:1.0;"/><line style="stroke:#181818;stroke-width:1.0;" x1="82" x2="82" y1="327.7075" y2="347.7075"/><polygon fill="#181818" points="78,337.7075,82,347.7075,86,337.7075,82,341.7075" style="stroke:#181818;stroke-width:1.0;"/><line style="stroke:#181818;stroke-width:1.0;" x1="82" x2="82" y1="30" y2="50"/><polygon fill="#181818" points="78,40,82,50,86,40,82,44" style="stroke:#181818;stroke-width:1.0;"/><line style="stroke:#181818;stroke-width:1.0;" x1="82" x2="82" y1="371.7075" y2="403.418"/><polygon fill="#181818" points="78,393.418,82,403.418,86,393.418,82,397.418" style="stroke:#181818;stroke-width:1.0;"/><line style="stroke:#181818;stroke-width:1.0;" x1="82" x2="82" y1="437.3867" y2="491.5903"/><polygon fill="#181818" points="78,481.5903,82,491.5903,86,481.5903,82,485.5903" style="stroke:#181818;stroke-width:1.0;"/><text fill="#000000" font-family="sans-serif" font-size="11" lengthAdjust="spacing" textLength="20" x="86" y="458.6914">yes</text><text fill="#000000" font-family="sans-serif" font-size="11" lengthAdjust="spacing" textLength="50" x="86" y="471.4961">:Proceed</text><!--SRC=[BO-z3i8m38HtFyL9BEtGaIMHG0Wn8l4AfN6frP1KYSNFsvE6UZhhRD_dh7rIeiGBzqhcFF4m8yKtnfYm52zRGYaPqTpM5ewL1sLtRA4J1pGXjdK4s2Lsvf9IMNrApX8UzOJTx5cyhvA3ax6gxl3bBS6SlFyded_rukNksMvWU4_Y6SqAjiUmGbO0oJKU8IgQSgabSuqlXaO4_kZwYANkW6AHkQKuC3jBb3KkFm00]--></g></svg>