<?xml version="1.0" encoding="us-ascii" standalone="no"?><svg xmlns="http://www.w3.org/2000/svg" xmlns:xlink="http://www.w3.org/1999/xlink" contentStyleType="text/css" height="3066px" preserveAspectRatio="none" style="width:823px;height:3066px;background:#FFFFFF;" version="1.1" viewBox="0 0 823 3066" width="823px" zoomAndPan="magnify"><defs/><g><ellipse cx="206" cy="20" fill="#222222" rx="10" ry="10" style="stroke:#222222;stroke-width:1.0;"/><rect fill="#F1F1F1" height="33.9688" rx="12.5" ry="12.5" style="stroke:#181818;stroke-width:0.5;" width="162" x="125" y="50"/><text fill="#000000" font-family="sans-serif" font-size="12" lengthAdjust="spacing" textLength="142" x="135" y="71.1387">Move to home position</text><rect fill="none" height="431.3755" style="stroke:#000000;stroke-width:1.5;" width="338" x="120" y="93.9688"/><path d="M234,93.9688 L234,103.2656 L224,113.2656 L120,113.2656 " fill="none" style="stroke:#000000;stroke-width:1.5;"/><text fill="#000000" font-family="sans-serif" font-size="14" lengthAdjust="spacing" textLength="104" x="123" y="107.9639">Checking parts</text><rect fill="#F1F1F1" height="33.9688" rx="12.5" ry="12.5" style="stroke:#181818;stroke-width:0.5;" width="107" x="152.5" y="130.2656"/><text fill="#000000" font-family="sans-serif" font-size="12" lengthAdjust="spacing" textLength="87" x="162.5" y="151.4043">Move to row 1</text><rect fill="#F1F1F1" height="33.9688" rx="12.5" ry="12.5" style="stroke:#181818;stroke-width:0.5;" width="142" x="135" y="228.2344"/><text fill="#000000" font-family="sans-serif" font-size="12" lengthAdjust="spacing" textLength="122" x="145" y="249.373">Check row for parts</text><rect fill="#FF0000" height="33.9688" rx="12.5" ry="12.5" style="stroke:#181818;stroke-width:0.5;" width="132" x="140" y="330.6055"/><text fill="#000000" font-family="sans-serif" font-size="12" lengthAdjust="spacing" textLength="112" x="150" y="351.7441">Error missing part</text><polygon fill="#F1F1F1" points="161.5,282.2031,250.5,282.2031,262.5,294.2031,250.5,306.2031,161.5,306.2031,149.5,294.2031,161.5,282.2031" style="stroke:#181818;stroke-width:0.5;"/><text fill="#000000" font-family="sans-serif" font-size="11" lengthAdjust="spacing" textLength="14" x="210" y="316.4136">no</text><text fill="#000000" font-family="sans-serif" font-size="11" lengthAdjust="spacing" textLength="89" x="161.5" y="298.0112">Parts detected?</text><rect fill="#F1F1F1" height="33.9688" rx="12.5" ry="12.5" style="stroke:#181818;stroke-width:0.5;" width="125" x="143.5" y="435.3755"/><text fill="#000000" font-family="sans-serif" font-size="12" lengthAdjust="spacing" textLength="105" x="153.5" y="456.5142">All parts availible</text><polygon fill="#F1F1F1" points="206,184.2344,218,196.2344,206,208.2344,194,196.2344,206,184.2344" style="stroke:#181818;stroke-width:0.5;"/><polygon fill="#F1F1F1" points="162,489.3442,250,489.3442,262,501.3442,250,513.3442,162,513.3442,150,501.3442,162,489.3442" style="stroke:#181818;stroke-width:0.5;"/><text fill="#000000" font-family="sans-serif" font-size="11" lengthAdjust="spacing" textLength="88" x="162" y="505.1523">row 5 checked?</text><text fill="#000000" font-family="sans-serif" font-size="11" lengthAdjust="spacing" textLength="14" x="262" y="498.75">no</text><rect fill="#F1F1F1" height="33.9688" rx="12.5" ry="12.5" style="stroke:#181818;stroke-width:0.5;" width="130" x="318" y="328.0078"/><text fill="#000000" font-family="sans-serif" font-size="12" lengthAdjust="spacing" textLength="106" x="332" y="349.1465">Move to next row</text><rect fill="none" height="651.9531" style="stroke:#000000;stroke-width:1.5;" width="661" x="11" y="598.5547"/><path d="M173,598.5547 L173,607.8516 L163,617.8516 L11,617.8516 " fill="none" style="stroke:#000000;stroke-width:1.5;"/><text fill="#000000" font-family="sans-serif" font-size="14" lengthAdjust="spacing" textLength="152" x="14" y="612.5498">Placing parts in holder</text><path d="M401,886.2813 L401,987.0781 L652,987.0781 L652,896.2813 L642,886.2813 L401,886.2813 " fill="#FEFFDD" style="stroke:#181818;stroke-width:0.5;"/><path d="M642,886.2813 L642,896.2813 L652,896.2813 L642,886.2813 " fill="#FEFFDD" style="stroke:#181818;stroke-width:0.5;"/><text fill="#000000" font-family="sans-serif" font-size="13" lengthAdjust="spacing" textLength="230" x="407" y="903.3481">For picking up parts activate output:</text><text fill="#000000" font-family="sans-serif" font-size="13" lengthAdjust="spacing" textLength="84" x="407" y="918.481">Gripper close</text><text fill="#000000" font-family="sans-serif" font-size="13" lengthAdjust="spacing" textLength="39" x="407" y="933.6138">Nr. 15</text><text fill="#000000" font-family="sans-serif" font-size="13" lengthAdjust="spacing" textLength="211" x="407" y="948.7466">For placing parts activate output:</text><text fill="#000000" font-family="sans-serif" font-size="13" lengthAdjust="spacing" textLength="83" x="407" y="963.8794">Gripper open</text><text fill="#000000" font-family="sans-serif" font-size="13" lengthAdjust="spacing" textLength="39" x="407" y="979.0122">Nr. 14</text><rect fill="#F1F1F1" height="33.9688" rx="12.5" ry="12.5" style="stroke:#181818;stroke-width:0.5;" width="92" x="160" y="634.8516"/><text fill="#000000" font-family="sans-serif" font-size="12" lengthAdjust="spacing" textLength="72" x="170" y="655.9902">Pick up cap</text><rect fill="#F1F1F1" height="33.9688" rx="12.5" ry="12.5" style="stroke:#181818;stroke-width:0.5;" width="215" x="98.5" y="688.8203"/><text fill="#000000" font-family="sans-serif" font-size="12" lengthAdjust="spacing" textLength="195" x="108.5" y="709.959">Place cap in designated holder</text><rect fill="#F1F1F1" height="33.9688" rx="12.5" ry="12.5" style="stroke:#181818;stroke-width:0.5;" width="93" x="159.5" y="742.7891"/><text fill="#000000" font-family="sans-serif" font-size="12" lengthAdjust="spacing" textLength="73" x="169.5" y="763.9277">Pick up bolt</text><rect fill="#F1F1F1" height="33.9688" rx="12.5" ry="12.5" style="stroke:#181818;stroke-width:0.5;" width="216" x="98" y="796.7578"/><text fill="#000000" font-family="sans-serif" font-size="12" lengthAdjust="spacing" textLength="196" x="108" y="817.8965">Place bolt in designated holder</text><rect fill="#F1F1F1" height="33.9688" rx="12.5" ry="12.5" style="stroke:#181818;stroke-width:0.5;" width="93" x="159.5" y="850.7266"/><text fill="#000000" font-family="sans-serif" font-size="12" lengthAdjust="spacing" textLength="73" x="169.5" y="871.8652">Pick up ring</text><rect fill="#F1F1F1" height="33.9688" rx="12.5" ry="12.5" style="stroke:#181818;stroke-width:0.5;" width="167" x="122.5" y="919.6953"/><text fill="#000000" font-family="sans-serif" font-size="12" lengthAdjust="spacing" textLength="147" x="132.5" y="940.834">Place ring ontop of bolt</text><rect fill="#F1F1F1" height="33.9688" rx="12.5" ry="12.5" style="stroke:#181818;stroke-width:0.5;" width="90" x="161" y="988.6641"/><text fill="#000000" font-family="sans-serif" font-size="12" lengthAdjust="spacing" textLength="70" x="171" y="1009.8027">Pick up nut</text><rect fill="#F1F1F1" height="33.9688" rx="12.5" ry="12.5" style="stroke:#181818;stroke-width:0.5;" width="213" x="99.5" y="1042.6328"/><text fill="#000000" font-family="sans-serif" font-size="12" lengthAdjust="spacing" textLength="193" x="109.5" y="1063.7715">Place nut in designated holder</text><rect fill="#F1F1F1" height="33.9688" rx="12.5" ry="12.5" style="stroke:#181818;stroke-width:0.5;" width="117" x="147.5" y="1096.6016"/><text fill="#000000" font-family="sans-serif" font-size="12" lengthAdjust="spacing" textLength="97" x="157.5" y="1117.7402">Pick up plunger</text><rect fill="#F1F1F1" height="33.9688" rx="12.5" ry="12.5" style="stroke:#181818;stroke-width:0.5;" width="370" x="21" y="1150.5703"/><text fill="#000000" font-family="sans-serif" font-size="12" lengthAdjust="spacing" textLength="350" x="31" y="1171.709">Place plunger through nut inside the designated holder</text><rect fill="#F1F1F1" height="33.9688" rx="12.5" ry="12.5" style="stroke:#181818;stroke-width:0.5;" width="162" x="125" y="1204.5391"/><text fill="#000000" font-family="sans-serif" font-size="12" lengthAdjust="spacing" textLength="142" x="135" y="1225.6777">Move to home position</text><rect fill="none" height="1687.5752" style="stroke:#000000;stroke-width:1.5;" width="610" x="27.5" y="1260.5078"/><path d="M187.5,1260.5078 L187.5,1269.8047 L177.5,1279.8047 L27.5,1279.8047 " fill="none" style="stroke:#000000;stroke-width:1.5;"/><text fill="#000000" font-family="sans-serif" font-size="14" lengthAdjust="spacing" textLength="150" x="30.5" y="1274.5029">Assembely of the part</text><rect fill="#F1F1F1" height="33.9688" rx="12.5" ry="12.5" style="stroke:#181818;stroke-width:0.5;" width="139" x="136.5" y="1296.8047"/><text fill="#000000" font-family="sans-serif" font-size="12" lengthAdjust="spacing" textLength="119" x="146.5" y="1317.9434">Grab the main part</text><rect fill="#F1F1F1" height="33.9688" rx="12.5" ry="12.5" style="stroke:#181818;stroke-width:0.5;" width="210" x="101" y="1350.7734"/><text fill="#000000" font-family="sans-serif" font-size="12" lengthAdjust="spacing" textLength="190" x="111" y="1371.9121">Move main part above the cap</text><rect fill="#F1F1F1" height="33.9688" rx="12.5" ry="12.5" style="stroke:#181818;stroke-width:0.5;" width="252" x="80" y="1404.7422"/><text fill="#000000" font-family="sans-serif" font-size="12" lengthAdjust="spacing" textLength="232" x="90" y="1425.8809">Place the main part ontop of the cap</text><path d="M290.5,1492.7109 L290.5,1516.4102 L270.5,1520.4102 L290.5,1524.4102 L290.5,1548.1094 A0,0 0 0 0 290.5,1548.1094 L567.5,1548.1094 A0,0 0 0 0 567.5,1548.1094 L567.5,1502.7109 L557.5,1492.7109 L290.5,1492.7109 A0,0 0 0 0 290.5,1492.7109 " fill="#FEFFDD" style="stroke:#181818;stroke-width:0.5;"/><path d="M557.5,1492.7109 L557.5,1502.7109 L567.5,1502.7109 L557.5,1492.7109 " fill="#FEFFDD" style="stroke:#181818;stroke-width:0.5;"/><text fill="#000000" font-family="sans-serif" font-size="13" lengthAdjust="spacing" textLength="93" x="296.5" y="1509.7778">Enable output:</text><text fill="#000000" font-family="sans-serif" font-size="13" lengthAdjust="spacing" textLength="256" x="296.5" y="1524.9106">Motor aansturen (assembly station cap)</text><text fill="#000000" font-family="sans-serif" font-size="13" lengthAdjust="spacing" textLength="31" x="296.5" y="1540.0435">Nr. 8</text><rect fill="#F1F1F1" height="33.9688" rx="12.5" ry="12.5" style="stroke:#181818;stroke-width:0.5;" width="129" x="141.5" y="1503.4258"/><text fill="#000000" font-family="sans-serif" font-size="12" lengthAdjust="spacing" textLength="109" x="151.5" y="1524.5645">Enable the motor</text><polygon fill="#F1F1F1" points="206,1458.7109,218,1470.7109,206,1482.7109,194,1470.7109,206,1458.7109" style="stroke:#181818;stroke-width:0.5;"/><polygon fill="#F1F1F1" points="149,1568.1094,263,1568.1094,275,1580.1094,263,1592.1094,149,1592.1094,137,1580.1094,149,1568.1094" style="stroke:#181818;stroke-width:0.5;"/><text fill="#000000" font-family="sans-serif" font-size="11" lengthAdjust="spacing" textLength="114" x="149" y="1583.9175">3 seconds elapsed?</text><text fill="#000000" font-family="sans-serif" font-size="11" lengthAdjust="spacing" textLength="14" x="275" y="1577.5151">no</text><path d="M292,1624.9141 L292,1648.6133 L272,1652.6133 L292,1656.6133 L292,1680.3125 A0,0 0 0 0 292,1680.3125 L569,1680.3125 A0,0 0 0 0 569,1680.3125 L569,1634.9141 L559,1624.9141 L292,1624.9141 A0,0 0 0 0 292,1624.9141 " fill="#FEFFDD" style="stroke:#181818;stroke-width:0.5;"/><path d="M559,1624.9141 L559,1634.9141 L569,1634.9141 L559,1624.9141 " fill="#FEFFDD" style="stroke:#181818;stroke-width:0.5;"/><text fill="#000000" font-family="sans-serif" font-size="13" lengthAdjust="spacing" textLength="95" x="298" y="1641.981">disable output:</text><text fill="#000000" font-family="sans-serif" font-size="13" lengthAdjust="spacing" textLength="256" x="298" y="1657.1138">Motor aansturen (assembly station cap)</text><text fill="#000000" font-family="sans-serif" font-size="13" lengthAdjust="spacing" textLength="31" x="298" y="1672.2466">Nr. 8</text><rect fill="#F1F1F1" height="33.9688" rx="12.5" ry="12.5" style="stroke:#181818;stroke-width:0.5;" width="132" x="140" y="1635.6289"/><text fill="#000000" font-family="sans-serif" font-size="12" lengthAdjust="spacing" textLength="112" x="150" y="1656.7676">Disable the motor</text><rect fill="#F1F1F1" height="33.9688" rx="12.5" ry="12.5" style="stroke:#181818;stroke-width:0.5;" width="147" x="132.5" y="1700.3125"/><text fill="#000000" font-family="sans-serif" font-size="12" lengthAdjust="spacing" textLength="127" x="142.5" y="1721.4512">Go to home position</text><rect fill="#F1F1F1" height="33.9688" rx="12.5" ry="12.5" style="stroke:#181818;stroke-width:0.5;" width="213" x="99.5" y="1812.3633"/><text fill="#000000" font-family="sans-serif" font-size="12" lengthAdjust="spacing" textLength="193" x="109.5" y="1833.502">rotate 90 degrees in the x-axis</text><polygon fill="#F1F1F1" points="206,1754.2813,218,1766.2813,206,1778.2813,194,1766.2813,206,1754.2813" style="stroke:#181818;stroke-width:0.5;"/><polygon fill="#F1F1F1" points="142.5,1866.332,269.5,1866.332,281.5,1878.332,269.5,1890.332,142.5,1890.332,130.5,1878.332,142.5,1866.332" style="stroke:#181818;stroke-width:0.5;"/><text fill="#000000" font-family="sans-serif" font-size="11" lengthAdjust="spacing" textLength="127" x="142.5" y="1882.1401">rotateted 90 degrees?</text><text fill="#000000" font-family="sans-serif" font-size="11" lengthAdjust="spacing" textLength="14" x="281.5" y="1875.7378">no</text><rect fill="#F1F1F1" height="33.9688" rx="12.5" ry="12.5" style="stroke:#181818;stroke-width:0.5;" width="208" x="102" y="1931.731"/><text fill="#000000" font-family="sans-serif" font-size="12" lengthAdjust="spacing" textLength="188" x="112" y="1952.8696">Move main part above the nut</text><rect fill="#F1F1F1" height="33.9688" rx="12.5" ry="12.5" style="stroke:#181818;stroke-width:0.5;" width="250" x="81" y="1985.6997"/><text fill="#000000" font-family="sans-serif" font-size="12" lengthAdjust="spacing" textLength="230" x="91" y="2006.8384">Place the main part ontop of the nut</text><path d="M290.5,2073.6685 L290.5,2097.3677 L270.5,2101.3677 L290.5,2105.3677 L290.5,2129.0669 A0,0 0 0 0 290.5,2129.0669 L588.5,2129.0669 A0,0 0 0 0 588.5,2129.0669 L588.5,2083.6685 L578.5,2073.6685 L290.5,2073.6685 A0,0 0 0 0 290.5,2073.6685 " fill="#FEFFDD" style="stroke:#181818;stroke-width:0.5;"/><path d="M578.5,2073.6685 L578.5,2083.6685 L588.5,2083.6685 L578.5,2073.6685 " fill="#FEFFDD" style="stroke:#181818;stroke-width:0.5;"/><text fill="#000000" font-family="sans-serif" font-size="13" lengthAdjust="spacing" textLength="93" x="296.5" y="2090.7354">Enable output:</text><text fill="#000000" font-family="sans-serif" font-size="13" lengthAdjust="spacing" textLength="277" x="296.5" y="2105.8682">Motor aansturen (assembly station big nut)</text><text fill="#000000" font-family="sans-serif" font-size="13" lengthAdjust="spacing" textLength="31" x="296.5" y="2121.001">Nr. 9</text><rect fill="#F1F1F1" height="33.9688" rx="12.5" ry="12.5" style="stroke:#181818;stroke-width:0.5;" width="129" x="141.5" y="2084.3833"/><text fill="#000000" font-family="sans-serif" font-size="12" lengthAdjust="spacing" textLength="109" x="151.5" y="2105.522">Enable the motor</text><polygon fill="#F1F1F1" points="206,2039.6685,218,2051.6685,206,2063.6685,194,2051.6685,206,2039.6685" style="stroke:#181818;stroke-width:0.5;"/><polygon fill="#F1F1F1" points="149,2149.0669,263,2149.0669,275,2161.0669,263,2173.0669,149,2173.0669,137,2161.0669,149,2149.0669" style="stroke:#181818;stroke-width:0.5;"/><text fill="#000000" font-family="sans-serif" font-size="11" lengthAdjust="spacing" textLength="114" x="149" y="2164.875">3 seconds elapsed?</text><text fill="#000000" font-family="sans-serif" font-size="11" lengthAdjust="spacing" textLength="14" x="275" y="2158.4727">no</text><path d="M292,2205.8716 L292,2229.5708 L272,2233.5708 L292,2237.5708 L292,2261.27 A0,0 0 0 0 292,2261.27 L569,2261.27 A0,0 0 0 0 569,2261.27 L569,2215.8716 L559,2205.8716 L292,2205.8716 A0,0 0 0 0 292,2205.8716 " fill="#FEFFDD" style="stroke:#181818;stroke-width:0.5;"/><path d="M559,2205.8716 L559,2215.8716 L569,2215.8716 L559,2205.8716 " fill="#FEFFDD" style="stroke:#181818;stroke-width:0.5;"/><text fill="#000000" font-family="sans-serif" font-size="13" lengthAdjust="spacing" textLength="97" x="298" y="2222.9385">Disable output:</text><text fill="#000000" font-family="sans-serif" font-size="13" lengthAdjust="spacing" textLength="256" x="298" y="2238.0713">Motor aansturen (assembly station cap)</text><text fill="#000000" font-family="sans-serif" font-size="13" lengthAdjust="spacing" textLength="31" x="298" y="2253.2041">Nr. 8</text><rect fill="#F1F1F1" height="33.9688" rx="12.5" ry="12.5" style="stroke:#181818;stroke-width:0.5;" width="132" x="140" y="2216.5864"/><text fill="#000000" font-family="sans-serif" font-size="12" lengthAdjust="spacing" textLength="112" x="150" y="2237.7251">Disable the motor</text><rect fill="#F1F1F1" height="33.9688" rx="12.5" ry="12.5" style="stroke:#181818;stroke-width:0.5;" width="147" x="132.5" y="2281.27"/><text fill="#000000" font-family="sans-serif" font-size="12" lengthAdjust="spacing" textLength="127" x="142.5" y="2302.4087">Go to home position</text><rect fill="#F1F1F1" height="33.9688" rx="12.5" ry="12.5" style="stroke:#181818;stroke-width:0.5;" width="213" x="99.5" y="2379.2388"/><text fill="#000000" font-family="sans-serif" font-size="12" lengthAdjust="spacing" textLength="193" x="109.5" y="2400.3774">rotate 90 degrees in the x-axis</text><polygon fill="#F1F1F1" points="206,2335.2388,218,2347.2388,206,2359.2388,194,2347.2388,206,2335.2388" style="stroke:#181818;stroke-width:0.5;"/><polygon fill="#F1F1F1" points="142.5,2433.2075,269.5,2433.2075,281.5,2445.2075,269.5,2457.2075,142.5,2457.2075,130.5,2445.2075,142.5,2433.2075" style="stroke:#181818;stroke-width:0.5;"/><text fill="#000000" font-family="sans-serif" font-size="11" lengthAdjust="spacing" textLength="127" x="142.5" y="2449.0156">rotateted 90 degrees?</text><text fill="#000000" font-family="sans-serif" font-size="11" lengthAdjust="spacing" textLength="14" x="281.5" y="2442.6133">no</text><rect fill="#F1F1F1" height="33.9688" rx="12.5" ry="12.5" style="stroke:#181818;stroke-width:0.5;" width="239" x="86.5" y="2498.6064"/><text fill="#000000" font-family="sans-serif" font-size="12" lengthAdjust="spacing" textLength="219" x="96.5" y="2519.7451">Move main part above the ring/bolt</text><rect fill="#F1F1F1" height="33.9688" rx="12.5" ry="12.5" style="stroke:#181818;stroke-width:0.5;" width="337" x="37.5" y="2552.5752"/><text fill="#000000" font-family="sans-serif" font-size="12" lengthAdjust="spacing" textLength="317" x="47.5" y="2573.7139">Place the main part over the ring ontop of the bolt</text><path d="M290.5,2640.5439 L290.5,2664.2432 L270.5,2668.2432 L290.5,2672.2432 L290.5,2695.9424 A0,0 0 0 0 290.5,2695.9424 L603.5,2695.9424 A0,0 0 0 0 603.5,2695.9424 L603.5,2650.5439 L593.5,2640.5439 L290.5,2640.5439 A0,0 0 0 0 290.5,2640.5439 " fill="#FEFFDD" style="stroke:#181818;stroke-width:0.5;"/><path d="M593.5,2640.5439 L593.5,2650.5439 L603.5,2650.5439 L593.5,2640.5439 " fill="#FEFFDD" style="stroke:#181818;stroke-width:0.5;"/><text fill="#000000" font-family="sans-serif" font-size="13" lengthAdjust="spacing" textLength="93" x="296.5" y="2657.6108">Enable output:</text><text fill="#000000" font-family="sans-serif" font-size="13" lengthAdjust="spacing" textLength="292" x="296.5" y="2672.7437">Motor aansturen (assembly station small nut)</text><text fill="#000000" font-family="sans-serif" font-size="13" lengthAdjust="spacing" textLength="39" x="296.5" y="2687.8765">Nr. 10</text><rect fill="#F1F1F1" height="33.9688" rx="12.5" ry="12.5" style="stroke:#181818;stroke-width:0.5;" width="129" x="141.5" y="2651.2588"/><text fill="#000000" font-family="sans-serif" font-size="12" lengthAdjust="spacing" textLength="109" x="151.5" y="2672.3975">Enable the motor</text><polygon fill="#F1F1F1" points="206,2606.5439,218,2618.5439,206,2630.5439,194,2618.5439,206,2606.5439" style="stroke:#181818;stroke-width:0.5;"/><polygon fill="#F1F1F1" points="149,2715.9424,263,2715.9424,275,2727.9424,263,2739.9424,149,2739.9424,137,2727.9424,149,2715.9424" style="stroke:#181818;stroke-width:0.5;"/><text fill="#000000" font-family="sans-serif" font-size="11" lengthAdjust="spacing" textLength="114" x="149" y="2731.7505">3 seconds elapsed?</text><text fill="#000000" font-family="sans-serif" font-size="11" lengthAdjust="spacing" textLength="14" x="275" y="2725.3481">no</text><path d="M292,2772.7471 L292,2796.4463 L272,2800.4463 L292,2804.4463 L292,2828.1455 A0,0 0 0 0 292,2828.1455 L605,2828.1455 A0,0 0 0 0 605,2828.1455 L605,2782.7471 L595,2772.7471 L292,2772.7471 A0,0 0 0 0 292,2772.7471 " fill="#FEFFDD" style="stroke:#181818;stroke-width:0.5;"/><path d="M595,2772.7471 L595,2782.7471 L605,2782.7471 L595,2772.7471 " fill="#FEFFDD" style="stroke:#181818;stroke-width:0.5;"/><text fill="#000000" font-family="sans-serif" font-size="13" lengthAdjust="spacing" textLength="97" x="298" y="2789.814">Disable output:</text><text fill="#000000" font-family="sans-serif" font-size="13" lengthAdjust="spacing" textLength="292" x="298" y="2804.9468">Motor aansturen (assembly station small nut)</text><text fill="#000000" font-family="sans-serif" font-size="13" lengthAdjust="spacing" textLength="39" x="298" y="2820.0796">Nr. 10</text><rect fill="#F1F1F1" height="33.9688" rx="12.5" ry="12.5" style="stroke:#181818;stroke-width:0.5;" width="132" x="140" y="2783.4619"/><text fill="#000000" font-family="sans-serif" font-size="12" lengthAdjust="spacing" textLength="112" x="150" y="2804.6006">Disable the motor</text><rect fill="#F1F1F1" height="33.9688" rx="12.5" ry="12.5" style="stroke:#181818;stroke-width:0.5;" width="147" x="132.5" y="2848.1455"/><text fill="#000000" font-family="sans-serif" font-size="12" lengthAdjust="spacing" textLength="127" x="142.5" y="2869.2842">Go to home position</text><rect fill="#F1F1F1" height="33.9688" rx="12.5" ry="12.5" style="stroke:#181818;stroke-width:0.5;" width="155" x="128.5" y="2902.1143"/><text fill="#000000" font-family="sans-serif" font-size="12" lengthAdjust="spacing" textLength="135" x="138.5" y="2923.2529">Place part in final box</text><polygon fill="#F1F1F1" points="206,564.5547,218,576.5547,206,588.5547,194,576.5547,206,564.5547" style="stroke:#181818;stroke-width:0.5;"/><polygon fill="#F1F1F1" points="171,2968.083,241,2968.083,253,2980.083,241,2992.083,171,2992.083,159,2980.083,171,2968.083" style="stroke:#181818;stroke-width:0.5;"/><text fill="#000000" font-family="sans-serif" font-size="11" lengthAdjust="spacing" textLength="70" x="171" y="2983.8911">row 5 used?</text><text fill="#000000" font-family="sans-serif" font-size="11" lengthAdjust="spacing" textLength="14" x="253" y="2977.4888">no</text><rect fill="#F1F1F1" height="33.9688" rx="12.5" ry="12.5" style="stroke:#181818;stroke-width:0.5;" width="130" x="682" y="1788.2813"/><text fill="#000000" font-family="sans-serif" font-size="12" lengthAdjust="spacing" textLength="106" x="696" y="1809.4199">Move to next row</text><ellipse cx="206" cy="3044.4819" fill="none" rx="11" ry="11" style="stroke:#222222;stroke-width:1.0;"/><ellipse cx="206" cy="3044.4819" fill="#222222" rx="6" ry="6" style="stroke:#222222;stroke-width:1.0;"/><line style="stroke:#181818;stroke-width:1.0;" x1="206" x2="206" y1="30" y2="50"/><polygon fill="#181818" points="202,40,206,50,210,40,206,44" style="stroke:#181818;stroke-width:1.0;"/><line style="stroke:#181818;stroke-width:1.0;" x1="206" x2="206" y1="306.2031" y2="330.6055"/><polygon fill="#181818" points="202,320.6055,206,330.6055,210,320.6055,206,324.6055" style="stroke:#181818;stroke-width:1.0;"/><line style="stroke:#181818;stroke-width:1.0;" x1="262.5" x2="282" y1="294.2031" y2="294.2031"/><polygon fill="#181818" points="278,334.5898,282,344.5898,286,334.5898,282,338.5898" style="stroke:#181818;stroke-width:1.0;"/><line style="stroke:#181818;stroke-width:1.0;" x1="282" x2="282" y1="294.2031" y2="393.9766"/><line style="stroke:#181818;stroke-width:1.0;" x1="282" x2="206" y1="393.9766" y2="393.9766"/><line style="stroke:#181818;stroke-width:1.0;" x1="206" x2="206" y1="262.2031" y2="282.2031"/><polygon fill="#181818" points="202,272.2031,206,282.2031,210,272.2031,206,276.2031" style="stroke:#181818;stroke-width:1.0;"/><line style="stroke:#181818;stroke-width:1.0;" x1="206" x2="206" y1="393.9766" y2="435.3755"/><polygon fill="#181818" points="202,425.3755,206,435.3755,210,425.3755,206,429.3755" style="stroke:#181818;stroke-width:1.0;"/><text fill="#000000" font-family="sans-serif" font-size="11" lengthAdjust="spacing" textLength="20" x="210" y="415.2813">yes</text><line style="stroke:#181818;stroke-width:1.0;" x1="206" x2="206" y1="208.2344" y2="228.2344"/><polygon fill="#181818" points="202,218.2344,206,228.2344,210,218.2344,206,222.2344" style="stroke:#181818;stroke-width:1.0;"/><line style="stroke:#181818;stroke-width:1.0;" x1="262" x2="383" y1="501.3442" y2="501.3442"/><line style="stroke:#181818;stroke-width:1.0;" x1="383" x2="383" y1="361.9766" y2="501.3442"/><polygon fill="#181818" points="379,371.9766,383,361.9766,387,371.9766,383,367.9766" style="stroke:#181818;stroke-width:1.0;"/><line style="stroke:#181818;stroke-width:1.0;" x1="383" x2="383" y1="196.2344" y2="328.0078"/><line style="stroke:#181818;stroke-width:1.0;" x1="383" x2="218" y1="196.2344" y2="196.2344"/><polygon fill="#181818" points="228,192.2344,218,196.2344,228,200.2344,224,196.2344" style="stroke:#181818;stroke-width:1.0;"/><line style="stroke:#181818;stroke-width:1.0;" x1="206" x2="206" y1="469.3442" y2="489.3442"/><polygon fill="#181818" points="202,479.3442,206,489.3442,210,479.3442,206,483.3442" style="stroke:#181818;stroke-width:1.0;"/><line style="stroke:#181818;stroke-width:1.0;" x1="206" x2="206" y1="164.2344" y2="184.2344"/><polygon fill="#181818" points="202,174.2344,206,184.2344,210,174.2344,206,178.2344" style="stroke:#181818;stroke-width:1.0;"/><line style="stroke:#181818;stroke-width:1.0;" x1="206" x2="206" y1="83.9688" y2="130.2656"/><polygon fill="#181818" points="202,120.2656,206,130.2656,210,120.2656,206,124.2656" style="stroke:#181818;stroke-width:1.0;"/><line style="stroke:#181818;stroke-width:1.0;" x1="206" x2="206" y1="668.8203" y2="688.8203"/><polygon fill="#181818" points="202,678.8203,206,688.8203,210,678.8203,206,682.8203" style="stroke:#181818;stroke-width:1.0;"/><line style="stroke:#181818;stroke-width:1.0;" x1="206" x2="206" y1="722.7891" y2="742.7891"/><polygon fill="#181818" points="202,732.7891,206,742.7891,210,732.7891,206,736.7891" style="stroke:#181818;stroke-width:1.0;"/><line style="stroke:#181818;stroke-width:1.0;" x1="206" x2="206" y1="776.7578" y2="796.7578"/><polygon fill="#181818" points="202,786.7578,206,796.7578,210,786.7578,206,790.7578" style="stroke:#181818;stroke-width:1.0;"/><line style="stroke:#181818;stroke-width:1.0;" x1="206" x2="206" y1="830.7266" y2="850.7266"/><polygon fill="#181818" points="202,840.7266,206,850.7266,210,840.7266,206,844.7266" style="stroke:#181818;stroke-width:1.0;"/><line style="stroke:#181818;stroke-width:1.0;" x1="206" x2="206" y1="884.6953" y2="919.6953"/><polygon fill="#181818" points="202,909.6953,206,919.6953,210,909.6953,206,913.6953" style="stroke:#181818;stroke-width:1.0;"/><line style="stroke:#181818;stroke-width:1.0;" x1="206" x2="206" y1="953.6641" y2="988.6641"/><polygon fill="#181818" points="202,978.6641,206,988.6641,210,978.6641,206,982.6641" style="stroke:#181818;stroke-width:1.0;"/><line style="stroke:#181818;stroke-width:1.0;" x1="206" x2="206" y1="1022.6328" y2="1042.6328"/><polygon fill="#181818" points="202,1032.6328,206,1042.6328,210,1032.6328,206,1036.6328" style="stroke:#181818;stroke-width:1.0;"/><line style="stroke:#181818;stroke-width:1.0;" x1="206" x2="206" y1="1076.6016" y2="1096.6016"/><polygon fill="#181818" points="202,1086.6016,206,1096.6016,210,1086.6016,206,1090.6016" style="stroke:#181818;stroke-width:1.0;"/><line style="stroke:#181818;stroke-width:1.0;" x1="206" x2="206" y1="1130.5703" y2="1150.5703"/><polygon fill="#181818" points="202,1140.5703,206,1150.5703,210,1140.5703,206,1144.5703" style="stroke:#181818;stroke-width:1.0;"/><line style="stroke:#181818;stroke-width:1.0;" x1="206" x2="206" y1="1184.5391" y2="1204.5391"/><polygon fill="#181818" points="202,1194.5391,206,1204.5391,210,1194.5391,206,1198.5391" style="stroke:#181818;stroke-width:1.0;"/><line style="stroke:#181818;stroke-width:1.0;" x1="206" x2="206" y1="1330.7734" y2="1350.7734"/><polygon fill="#181818" points="202,1340.7734,206,1350.7734,210,1340.7734,206,1344.7734" style="stroke:#181818;stroke-width:1.0;"/><line style="stroke:#181818;stroke-width:1.0;" x1="206" x2="206" y1="1384.7422" y2="1404.7422"/><polygon fill="#181818" points="202,1394.7422,206,1404.7422,210,1394.7422,206,1398.7422" style="stroke:#181818;stroke-width:1.0;"/><line style="stroke:#181818;stroke-width:1.0;" x1="206" x2="206" y1="1482.7109" y2="1503.4258"/><polygon fill="#181818" points="202,1493.4258,206,1503.4258,210,1493.4258,206,1497.4258" style="stroke:#181818;stroke-width:1.0;"/><line style="stroke:#181818;stroke-width:1.0;" x1="275" x2="579.5" y1="1580.1094" y2="1580.1094"/><polygon fill="#181818" points="575.5,1530.4102,579.5,1520.4102,583.5,1530.4102,579.5,1526.4102" style="stroke:#181818;stroke-width:1.0;"/><line style="stroke:#181818;stroke-width:1.0;" x1="579.5" x2="579.5" y1="1470.7109" y2="1580.1094"/><line style="stroke:#181818;stroke-width:1.0;" x1="579.5" x2="218" y1="1470.7109" y2="1470.7109"/><polygon fill="#181818" points="228,1466.7109,218,1470.7109,228,1474.7109,224,1470.7109" style="stroke:#181818;stroke-width:1.0;"/><line style="stroke:#181818;stroke-width:1.0;" x1="206" x2="206" y1="1537.3945" y2="1568.1094"/><polygon fill="#181818" points="202,1558.1094,206,1568.1094,210,1558.1094,206,1562.1094" style="stroke:#181818;stroke-width:1.0;"/><line style="stroke:#181818;stroke-width:1.0;" x1="206" x2="206" y1="1438.7109" y2="1458.7109"/><polygon fill="#181818" points="202,1448.7109,206,1458.7109,210,1448.7109,206,1452.7109" style="stroke:#181818;stroke-width:1.0;"/><line style="stroke:#181818;stroke-width:1.0;" x1="206" x2="206" y1="1592.1094" y2="1635.6289"/><polygon fill="#181818" points="202,1625.6289,206,1635.6289,210,1625.6289,206,1629.6289" style="stroke:#181818;stroke-width:1.0;"/><text fill="#000000" font-family="sans-serif" font-size="11" lengthAdjust="spacing" textLength="20" x="210" y="1613.4141">yes</text><line style="stroke:#181818;stroke-width:1.0;" x1="206" x2="206" y1="1669.5977" y2="1700.3125"/><polygon fill="#181818" points="202,1690.3125,206,1700.3125,210,1690.3125,206,1694.3125" style="stroke:#181818;stroke-width:1.0;"/><line style="stroke:#181818;stroke-width:1.0;" x1="206" x2="206" y1="1778.2813" y2="1812.3633"/><polygon fill="#181818" points="202,1802.3633,206,1812.3633,210,1802.3633,206,1806.3633" style="stroke:#181818;stroke-width:1.0;"/><line style="stroke:#181818;stroke-width:1.0;" x1="281.5" x2="324.5" y1="1878.332" y2="1878.332"/><polygon fill="#181818" points="320.5,1839.3477,324.5,1829.3477,328.5,1839.3477,324.5,1835.3477" style="stroke:#181818;stroke-width:1.0;"/><line style="stroke:#181818;stroke-width:1.0;" x1="324.5" x2="324.5" y1="1766.2813" y2="1878.332"/><line style="stroke:#181818;stroke-width:1.0;" x1="324.5" x2="218" y1="1766.2813" y2="1766.2813"/><polygon fill="#181818" points="228,1762.2813,218,1766.2813,228,1770.2813,224,1766.2813" style="stroke:#181818;stroke-width:1.0;"/><line style="stroke:#181818;stroke-width:1.0;" x1="206" x2="206" y1="1846.332" y2="1866.332"/><polygon fill="#181818" points="202,1856.332,206,1866.332,210,1856.332,206,1860.332" style="stroke:#181818;stroke-width:1.0;"/><line style="stroke:#181818;stroke-width:1.0;" x1="206" x2="206" y1="1734.2813" y2="1754.2813"/><polygon fill="#181818" points="202,1744.2813,206,1754.2813,210,1744.2813,206,1748.2813" style="stroke:#181818;stroke-width:1.0;"/><line style="stroke:#181818;stroke-width:1.0;" x1="206" x2="206" y1="1890.332" y2="1931.731"/><polygon fill="#181818" points="202,1921.731,206,1931.731,210,1921.731,206,1925.731" style="stroke:#181818;stroke-width:1.0;"/><text fill="#000000" font-family="sans-serif" font-size="11" lengthAdjust="spacing" textLength="20" x="210" y="1911.6367">yes</text><line style="stroke:#181818;stroke-width:1.0;" x1="206" x2="206" y1="1965.6997" y2="1985.6997"/><polygon fill="#181818" points="202,1975.6997,206,1985.6997,210,1975.6997,206,1979.6997" style="stroke:#181818;stroke-width:1.0;"/><line style="stroke:#181818;stroke-width:1.0;" x1="206" x2="206" y1="2063.6685" y2="2084.3833"/><polygon fill="#181818" points="202,2074.3833,206,2084.3833,210,2074.3833,206,2078.3833" style="stroke:#181818;stroke-width:1.0;"/><line style="stroke:#181818;stroke-width:1.0;" x1="275" x2="600.5" y1="2161.0669" y2="2161.0669"/><polygon fill="#181818" points="596.5,2111.3677,600.5,2101.3677,604.5,2111.3677,600.5,2107.3677" style="stroke:#181818;stroke-width:1.0;"/><line style="stroke:#181818;stroke-width:1.0;" x1="600.5" x2="600.5" y1="2051.6685" y2="2161.0669"/><line style="stroke:#181818;stroke-width:1.0;" x1="600.5" x2="218" y1="2051.6685" y2="2051.6685"/><polygon fill="#181818" points="228,2047.6685,218,2051.6685,228,2055.6685,224,2051.6685" style="stroke:#181818;stroke-width:1.0;"/><line style="stroke:#181818;stroke-width:1.0;" x1="206" x2="206" y1="2118.3521" y2="2149.0669"/><polygon fill="#181818" points="202,2139.0669,206,2149.0669,210,2139.0669,206,2143.0669" style="stroke:#181818;stroke-width:1.0;"/><line style="stroke:#181818;stroke-width:1.0;" x1="206" x2="206" y1="2019.6685" y2="2039.6685"/><polygon fill="#181818" points="202,2029.6685,206,2039.6685,210,2029.6685,206,2033.6685" style="stroke:#181818;stroke-width:1.0;"/><line style="stroke:#181818;stroke-width:1.0;" x1="206" x2="206" y1="2173.0669" y2="2216.5864"/><polygon fill="#181818" points="202,2206.5864,206,2216.5864,210,2206.5864,206,2210.5864" style="stroke:#181818;stroke-width:1.0;"/><text fill="#000000" font-family="sans-serif" font-size="11" lengthAdjust="spacing" textLength="20" x="210" y="2194.3716">yes</text><line style="stroke:#181818;stroke-width:1.0;" x1="206" x2="206" y1="2250.5552" y2="2281.27"/><polygon fill="#181818" points="202,2271.27,206,2281.27,210,2271.27,206,2275.27" style="stroke:#181818;stroke-width:1.0;"/><line style="stroke:#181818;stroke-width:1.0;" x1="206" x2="206" y1="2359.2388" y2="2379.2388"/><polygon fill="#181818" points="202,2369.2388,206,2379.2388,210,2369.2388,206,2373.2388" style="stroke:#181818;stroke-width:1.0;"/><line style="stroke:#181818;stroke-width:1.0;" x1="281.5" x2="324.5" y1="2445.2075" y2="2445.2075"/><polygon fill="#181818" points="320.5,2406.2231,324.5,2396.2231,328.5,2406.2231,324.5,2402.2231" style="stroke:#181818;stroke-width:1.0;"/><line style="stroke:#181818;stroke-width:1.0;" x1="324.5" x2="324.5" y1="2347.2388" y2="2445.2075"/><line style="stroke:#181818;stroke-width:1.0;" x1="324.5" x2="218" y1="2347.2388" y2="2347.2388"/><polygon fill="#181818" points="228,2343.2388,218,2347.2388,228,2351.2388,224,2347.2388" style="stroke:#181818;stroke-width:1.0;"/><line style="stroke:#181818;stroke-width:1.0;" x1="206" x2="206" y1="2413.2075" y2="2433.2075"/><polygon fill="#181818" points="202,2423.2075,206,2433.2075,210,2423.2075,206,2427.2075" style="stroke:#181818;stroke-width:1.0;"/><line style="stroke:#181818;stroke-width:1.0;" x1="206" x2="206" y1="2315.2388" y2="2335.2388"/><polygon fill="#181818" points="202,2325.2388,206,2335.2388,210,2325.2388,206,2329.2388" style="stroke:#181818;stroke-width:1.0;"/><line style="stroke:#181818;stroke-width:1.0;" x1="206" x2="206" y1="2457.2075" y2="2498.6064"/><polygon fill="#181818" points="202,2488.6064,206,2498.6064,210,2488.6064,206,2492.6064" style="stroke:#181818;stroke-width:1.0;"/><text fill="#000000" font-family="sans-serif" font-size="11" lengthAdjust="spacing" textLength="20" x="210" y="2478.5122">yes</text><line style="stroke:#181818;stroke-width:1.0;" x1="206" x2="206" y1="2532.5752" y2="2552.5752"/><polygon fill="#181818" points="202,2542.5752,206,2552.5752,210,2542.5752,206,2546.5752" style="stroke:#181818;stroke-width:1.0;"/><line style="stroke:#181818;stroke-width:1.0;" x1="206" x2="206" y1="2630.5439" y2="2651.2588"/><polygon fill="#181818" points="202,2641.2588,206,2651.2588,210,2641.2588,206,2645.2588" style="stroke:#181818;stroke-width:1.0;"/><line style="stroke:#181818;stroke-width:1.0;" x1="275" x2="615.5" y1="2727.9424" y2="2727.9424"/><polygon fill="#181818" points="611.5,2678.2432,615.5,2668.2432,619.5,2678.2432,615.5,2674.2432" style="stroke:#181818;stroke-width:1.0;"/><line style="stroke:#181818;stroke-width:1.0;" x1="615.5" x2="615.5" y1="2618.5439" y2="2727.9424"/><line style="stroke:#181818;stroke-width:1.0;" x1="615.5" x2="218" y1="2618.5439" y2="2618.5439"/><polygon fill="#181818" points="228,2614.5439,218,2618.5439,228,2622.5439,224,2618.5439" style="stroke:#181818;stroke-width:1.0;"/><line style="stroke:#181818;stroke-width:1.0;" x1="206" x2="206" y1="2685.2275" y2="2715.9424"/><polygon fill="#181818" points="202,2705.9424,206,2715.9424,210,2705.9424,206,2709.9424" style="stroke:#181818;stroke-width:1.0;"/><line style="stroke:#181818;stroke-width:1.0;" x1="206" x2="206" y1="2586.5439" y2="2606.5439"/><polygon fill="#181818" points="202,2596.5439,206,2606.5439,210,2596.5439,206,2600.5439" style="stroke:#181818;stroke-width:1.0;"/><line style="stroke:#181818;stroke-width:1.0;" x1="206" x2="206" y1="2739.9424" y2="2783.4619"/><polygon fill="#181818" points="202,2773.4619,206,2783.4619,210,2773.4619,206,2777.4619" style="stroke:#181818;stroke-width:1.0;"/><text fill="#000000" font-family="sans-serif" font-size="11" lengthAdjust="spacing" textLength="20" x="210" y="2761.2471">yes</text><line style="stroke:#181818;stroke-width:1.0;" x1="206" x2="206" y1="2817.4307" y2="2848.1455"/><polygon fill="#181818" points="202,2838.1455,206,2848.1455,210,2838.1455,206,2842.1455" style="stroke:#181818;stroke-width:1.0;"/><line style="stroke:#181818;stroke-width:1.0;" x1="206" x2="206" y1="2882.1143" y2="2902.1143"/><polygon fill="#181818" points="202,2892.1143,206,2902.1143,210,2892.1143,206,2896.1143" style="stroke:#181818;stroke-width:1.0;"/><line style="stroke:#181818;stroke-width:1.0;" x1="206" x2="206" y1="1238.5078" y2="1296.8047"/><polygon fill="#181818" points="202,1286.8047,206,1296.8047,210,1286.8047,206,1290.8047" style="stroke:#181818;stroke-width:1.0;"/><line style="stroke:#181818;stroke-width:1.0;" x1="206" x2="206" y1="588.5547" y2="634.8516"/><polygon fill="#181818" points="202,624.8516,206,634.8516,210,624.8516,206,628.8516" style="stroke:#181818;stroke-width:1.0;"/><line style="stroke:#181818;stroke-width:1.0;" x1="253" x2="747" y1="2980.083" y2="2980.083"/><line style="stroke:#181818;stroke-width:1.0;" x1="747" x2="747" y1="1822.25" y2="2980.083"/><polygon fill="#181818" points="743,1832.25,747,1822.25,751,1832.25,747,1828.25" style="stroke:#181818;stroke-width:1.0;"/><line style="stroke:#181818;stroke-width:1.0;" x1="747" x2="747" y1="576.5547" y2="1788.2813"/><line style="stroke:#181818;stroke-width:1.0;" x1="747" x2="218" y1="576.5547" y2="576.5547"/><polygon fill="#181818" points="228,572.5547,218,576.5547,228,580.5547,224,576.5547" style="stroke:#181818;stroke-width:1.0;"/><line style="stroke:#181818;stroke-width:1.0;" x1="206" x2="206" y1="2936.083" y2="2968.083"/><polygon fill="#181818" points="202,2958.083,206,2968.083,210,2958.083,206,2962.083" style="stroke:#181818;stroke-width:1.0;"/><line style="stroke:#181818;stroke-width:1.0;" x1="206" x2="206" y1="513.3442" y2="564.5547"/><polygon fill="#181818" points="202,554.5547,206,564.5547,210,554.5547,206,558.5547" style="stroke:#181818;stroke-width:1.0;"/><text fill="#000000" font-family="sans-serif" font-size="11" lengthAdjust="spacing" textLength="20" x="210" y="543.0547">yes</text><line style="stroke:#181818;stroke-width:1.0;" x1="206" x2="206" y1="2992.083" y2="3033.4819"/><polygon fill="#181818" points="202,3023.4819,206,3033.4819,210,3023.4819,206,3027.4819" style="stroke:#181818;stroke-width:1.0;"/><text fill="#000000" font-family="sans-serif" font-size="11" lengthAdjust="spacing" textLength="20" x="210" y="3013.3877">yes</text><!--SRC=[vLR1Rjim3BtxAuZiaXwoDTWAh0xGeLYxd3Ra5sIRiOKeaY79IOgX_pvIjcF7ZTCTYWB3VB8eFlAHUfJjlB0-YkAVPeVW3HHcYr0Q9xqqUX6jQ3UymkHxWUb6wXnAiha9_8u0ZZ1hzZ1VaCLYYSBJ2sq6HDXQ6rl35c57hc7AaHraw37rc7sx0b-WXgasLy65dmyMi_ZHMW9lfNDjxiNHOIELQXQeCxbktcTtJ-XQh_XUgJetY9sGIYOAsxr4f9kzi5aCRHqQ3vuPTwN0lf0AOSfbt43A9GMwqhLaPtSGyZrtvVVQjb8YFNODfAOEgmpjXDkdZKUmCY_gXltWBicwoLNPaawzt0doCvKlAny7pwMLPOaMKcKS1iil-n7cDrsOawmNOvWITHVYInHw6QW5Av_oYaWnerIKYx2cwCWhhYT39tDDqREcj4NKnoH6-Hw8boEe7iWIznw8bs2qDoMOTHEnxwwhVWfQlPwXL9NEMrk0DHRIeJLLNZHXdCoGfJaIRcHidgE-1EwTmss2wedPSom-bI20U6b54anRGPHRTTTXZoOGIKXJuE04Je1TWtgE_N5yr8AqNuECDxQUWe460HgtlbI0veC088Hslh8yfoBKH2KvBqALbB2TN1RIrwYPobP9fzFq6HocHcSEK8dIZKmKaNwGxWph5wIpnksjMSTBS-Pu1usrnlDmtLwJI7AB6CQS2HzcuY3TkRk40Iob3ZFMW54fd8h-WXGQnzUby6PQI6JEMVkTlNrVFJpyVthWI_BJuBOTg68NhhVXVSgM5lUUAd5RGP_cWKxcr_-6KFwI_7czTDySFXOwdhNKGj4X7FZJSUclvDm_INNQXRO7Zext3m00]--></g></svg>